<svg width="37" height="40" viewBox="0 0 37 40" fill="none" xmlns="http://www.w3.org/2000/svg">
<rect width="37" height="40" rx="10" fill="#5A4CAC"/>
<path d="M18.5 7C11.5978 7 6 12.5978 6 19.5C6 26.4022 11.5978 32 18.5 32C25.4022 32 31 26.4022 31 19.5C31 12.5978 25.4022 7 18.5 7ZM19.5054 29.7717C19.4511 29.7717 19.3967 29.7717 19.3152 29.7989V23.9022C20.7283 23.875 22.0054 23.8478 23.1739 23.7663C22.1413 26.9457 20.212 29.0652 19.5054 29.7717ZM17.4946 29.7717C16.7609 29.038 14.8587 26.9185 13.8261 23.7663C14.9674 23.8478 16.2717 23.9022 17.6848 23.9022V29.7989C17.6304 29.7989 17.5761 29.7717 17.4946 29.7717ZM8.17391 19.5C8.17391 18.8207 8.25543 18.1413 8.36413 17.4891C8.96196 17.3804 10.1033 17.2174 11.7065 17.0543C11.5707 17.8424 11.4891 18.6576 11.4891 19.5272C11.4891 20.3967 11.5707 21.212 11.6793 21.9728C10.1033 21.8098 8.93478 21.6467 8.33696 21.538C8.25543 20.8587 8.17391 20.1793 8.17391 19.5ZM13.1467 19.5C13.1467 18.5761 13.2554 17.7065 13.4185 16.8913C14.6685 16.8098 16.0815 16.7283 17.6848 16.7283V22.2717C16.1087 22.2446 14.6685 22.1902 13.3913 22.0815C13.2554 21.2935 13.1467 20.4239 13.1467 19.5ZM19.4783 9.22826C20.212 9.96196 22.087 12.1359 23.1467 15.2337C22.0054 15.1522 20.7283 15.0978 19.3152 15.0978V9.20109C19.3696 9.20109 19.4239 9.22826 19.4783 9.22826ZM17.6848 9.20109V15.0978C16.2717 15.125 14.9946 15.1522 13.8533 15.2337C14.8859 12.1359 16.788 9.96196 17.4946 9.22826C17.5761 9.22826 17.6304 9.20109 17.6848 9.20109ZM19.3152 22.2717V16.7283C20.8913 16.7554 22.3315 16.8098 23.5815 16.8913C23.7446 17.7065 23.8533 18.5761 23.8533 19.5C23.8533 20.4239 23.7717 21.2935 23.6087 22.1087C22.3587 22.1902 20.9185 22.2446 19.3152 22.2717ZM25.2663 17.0543C26.8696 17.2174 28.0109 17.3804 28.6087 17.4891C28.7446 18.1413 28.8261 18.8207 28.8261 19.5C28.8261 20.1793 28.7446 20.8587 28.6359 21.5109C28.038 21.6196 26.8967 21.7826 25.2935 21.9457C25.4293 21.1576 25.4837 20.3424 25.4837 19.4728C25.4837 18.6576 25.4022 17.8152 25.2663 17.0543ZM28.1196 15.75C27.3587 15.6413 26.2717 15.5054 24.8859 15.3696C24.2337 13.0326 23.0924 11.1576 22.1413 9.82609C24.8859 10.8587 27.0598 13.0326 28.1196 15.75ZM14.8587 9.82609C13.8804 11.1304 12.7663 13.0054 12.1141 15.3424C10.7554 15.4511 9.66848 15.6141 8.88043 15.7228C9.94022 13.0326 12.1413 10.8587 14.8587 9.82609ZM8.88043 23.25C9.6413 23.3587 10.7283 23.4946 12.087 23.6304C12.7391 25.9674 13.8261 27.8424 14.8043 29.1467C12.087 28.087 9.94022 25.9402 8.88043 23.25ZM22.1957 29.1467C23.1739 27.8424 24.2609 25.9946 24.913 23.6576C26.2717 23.5489 27.3587 23.3859 28.1196 23.2772C27.0598 25.9402 24.913 28.087 22.1957 29.1467Z" fill="#B0A9D3"/>
</svg>
