<svg width="43" height="43" viewBox="0 0 43 43" fill="none" xmlns="http://www.w3.org/2000/svg">
<path d="M42.1899 19.5848L23.4193 0.810887C22.339 -0.270296 20.5858 -0.270296 19.5039 0.810887L15.6069 4.70982L20.5511 9.65519C21.7005 9.26721 23.0178 9.52745 23.9335 10.4434C24.8541 11.3652 25.1125 12.694 24.7144 13.8474L29.4795 18.6143C30.6323 18.2168 31.9629 18.4736 32.8831 19.3961C34.1704 20.6826 34.1704 22.7684 32.8831 24.0556C31.5958 25.3432 29.5112 25.3432 28.2232 24.0556C27.2553 23.0869 27.0159 21.6647 27.5063 20.4718L23.0627 16.0268L23.062 27.7246C23.376 27.8796 23.672 28.0867 23.9335 28.3473C25.2205 29.6339 25.2205 31.7189 23.9335 33.0083C22.6466 34.2948 20.5606 34.2948 19.275 33.0083C17.9884 31.7193 17.8828 29.6342 19.1691 28.3473C19.4872 28.0295 19.8009 27.7894 20.1414 27.6286V15.8224C19.8009 15.6616 19.4875 15.4232 19.1688 15.1033C18.1944 14.1291 18.0122 12.6984 18.5122 11.5008L13.665 6.62522L0.807558 19.4979C-0.273716 20.5801 -0.266905 22.3337 0.814369 23.4152L19.588 42.1891C20.6686 43.2703 22.4232 43.2703 23.5054 42.1891L42.1885 23.5024C43.2698 22.4206 43.2708 20.6659 42.1899 19.5848Z" fill="#5B52A3"/>
</svg>
