<svg width="37" height="40" viewBox="0 0 37 40" fill="none" xmlns="http://www.w3.org/2000/svg">
<path d="M0 20C0 8.95431 8.9543 0 20 0H32C34.7614 0 37 2.23858 37 5V20C37 31.0457 28.0457 40 17 40H5C2.23858 40 0 37.7614 0 35V20Z" fill="#5A4CAC"/>
<path d="M23.3779 25.1079C23.3392 25.2628 23.4387 25.4167 23.5947 25.4504C23.7507 25.4842 23.904 25.3849 23.943 25.2302C24.0877 24.6567 24.2922 24.0989 24.5532 23.5658C24.6234 23.4225 24.5704 23.2478 24.4296 23.1728C24.2887 23.0979 24.1133 23.1511 24.0428 23.2943C23.7571 23.8746 23.5342 24.4825 23.3779 25.1079ZM25.2582 22.3801C25.3506 22.25 25.3267 22.0689 25.1999 21.9721C25.0732 21.8752 24.8915 21.8992 24.7989 22.029C24.7706 22.0686 24.7426 22.1086 24.7148 22.1488C24.6242 22.2801 24.6633 22.4592 24.7975 22.5456C24.9316 22.632 25.11 22.5929 25.2009 22.4617C25.2198 22.4344 25.2389 22.4072 25.2582 22.3801ZM12.8033 22.321C12.6705 22.4094 12.6349 22.5886 12.7194 22.7239C12.7586 22.7866 12.7969 22.8495 12.8345 22.9127C12.916 23.0499 13.0915 23.1005 13.231 23.0231C13.3705 22.9458 13.4213 22.7697 13.34 22.6324C13.2947 22.5557 13.2481 22.4794 13.2006 22.4035C13.1158 22.2683 12.9361 22.2325 12.8033 22.321ZM14.3176 26.4073C14.4764 26.3907 14.5921 26.2485 14.5701 26.0904C14.4731 25.3914 14.2897 24.6986 14.0232 24.0237C13.9646 23.8753 13.7942 23.8078 13.6476 23.871C13.5011 23.9341 13.4339 24.1039 13.4922 24.2524C13.736 24.8732 13.9045 25.5095 13.9951 26.1507C14.0174 26.3087 14.159 26.4239 14.3176 26.4073Z" fill="#B0A9D3"/>
<path d="M25.9643 16.834C25.8069 13.276 22.9013 10.31 19.3495 10.0819C15.2248 9.81936 11.7905 13.0924 11.7905 17.1562C11.7905 18.6906 12.2719 20.1504 13.1828 21.3774C14.5131 23.1695 15.2164 25.2053 15.2164 27.2648V27.3484C15.2164 27.484 15.3263 27.594 15.462 27.594C15.6421 27.594 15.7628 27.7867 15.7531 27.9665C15.7522 27.9834 15.7517 28.0005 15.7517 28.0176C15.7517 28.454 15.7517 29.0065 15.7517 29.4429C15.7517 29.8793 15.7517 30.4316 15.7517 30.868C15.7517 31.4202 16.201 31.8695 16.7532 31.8695C16.9177 31.8695 17.0545 31.9906 17.1045 32.1473C17.3448 32.9002 18.0494 33.4474 18.881 33.4474C19.7125 33.4474 20.417 32.9002 20.6573 32.1473C20.7073 31.9906 20.8442 31.8695 21.0087 31.8695C21.5608 31.8695 22.0101 31.4202 22.0101 30.868C22.0101 30.4316 22.0101 29.8793 22.0101 29.4429C22.0101 29.0065 22.0101 28.454 22.0101 28.0176C22.0101 28.0005 22.0097 27.9835 22.0088 27.9666C21.999 27.7868 22.1198 27.594 22.2999 27.594C22.4356 27.594 22.5455 27.484 22.5455 27.3484V27.264C22.5455 24.5044 23.475 23.0742 24.374 21.6912C25.2432 20.3539 26.0641 19.0907 25.9643 16.834ZM25.212 15.6522C25.311 16.0589 25.1081 16.469 24.7513 16.6879C24.4227 16.8894 24.0107 16.897 23.6749 16.7078L22.4661 16.0267C22.3189 15.9437 22.2602 15.7697 22.2602 15.6007C22.2602 15.4387 22.3072 15.2716 22.4347 15.1717L23.0277 14.7068C23.74 14.1484 24.7981 14.3235 25.0789 15.1839C25.129 15.3377 25.1735 15.4939 25.212 15.6522ZM21.032 18.3016C20.7651 18.3364 20.4669 18.3269 20.2769 18.1363C20.1054 17.9644 20.0823 17.7021 20.0973 17.4597C20.0985 17.4411 20.0991 17.4224 20.0991 17.4036C20.0991 17.1893 20.1484 16.9617 20.3171 16.8295L20.415 16.7527C20.6241 16.5888 20.911 16.5889 21.1758 16.6091C21.2 16.611 21.2244 16.6119 21.249 16.6119C21.2902 16.6119 21.3308 16.6094 21.3706 16.6044C21.7198 16.5607 22.1014 16.4843 22.408 16.657C22.9675 16.9723 22.9823 17.7728 22.4348 18.1086L22.2691 18.2102C21.9726 18.392 21.5931 18.3305 21.2468 18.2978C21.1758 18.2911 21.1039 18.2922 21.032 18.3016ZM21.4222 19.6443C21.1581 19.8528 20.6846 19.5895 20.7229 19.2551C20.7316 19.1785 20.7612 19.1027 20.8138 19.0363C20.9841 18.8214 21.3411 18.8274 21.5018 19.0487C21.6427 19.2396 21.6039 19.5001 21.4222 19.6443ZM20.0122 21.4583C20.0058 21.4782 19.987 21.489 19.966 21.489C19.5961 21.489 19.1803 21.5181 18.8958 21.2816L17.7966 20.3674C17.5412 20.1551 17.519 19.7783 17.519 19.4462C17.519 19.2218 17.5676 18.9822 17.7444 18.844L18.0472 18.6073C18.33 18.3862 18.7289 18.4148 19.0878 18.4148C19.1066 18.4148 19.1252 18.4143 19.1438 18.4131C19.4244 18.3957 19.7335 18.4097 19.932 18.6088C20.1107 18.7879 20.1416 19.0599 20.1428 19.3129C20.1432 19.387 20.1521 19.46 20.1688 19.5307C20.2526 19.8863 20.3964 20.2618 20.2847 20.6097L20.0122 21.4583ZM20.3994 22.5002C20.3994 22.7346 20.2089 22.9336 19.966 22.9336C19.7271 22.9336 19.5327 22.7392 19.5327 22.5002C19.5327 22.2635 19.7243 22.0668 19.966 22.0668C20.201 22.0668 20.3994 22.2572 20.3994 22.5002ZM16.5078 18.435C16.1157 18.435 15.6558 18.4435 15.3877 18.1575L15.25 18.0106C15.0056 17.7501 15.0169 17.3476 15.0169 16.9904C15.0169 16.6316 15.0079 16.2256 15.2516 15.9622L15.3245 15.8834C15.5837 15.6032 16.0279 15.6095 16.4096 15.6095C16.6746 15.6095 16.961 15.6362 17.1484 15.8237L17.843 16.5183C18.0655 16.7407 18.0767 17.0891 18.0767 17.4037C18.0767 17.6376 18.0282 17.8888 17.8438 18.0329L17.5753 18.2428C17.2858 18.4692 16.8753 18.435 16.5078 18.435ZM16.7637 19.7945C16.5797 19.931 16.3076 19.8915 16.1657 19.7126C16.0624 19.5811 16.0417 19.3904 16.1294 19.2366C16.2716 18.9727 16.6499 18.9264 16.8494 19.183C16.9916 19.3587 16.9728 19.6431 16.7637 19.7945ZM15.9762 14.5982C15.9762 14.3472 16.1797 14.1648 16.4096 14.1648C16.6521 14.1648 16.8429 14.3626 16.8429 14.5982C16.8429 14.8518 16.6389 15.0316 16.4096 15.0316C16.1706 15.0316 15.9762 14.8372 15.9762 14.5982ZM17.4208 14.5983C17.4208 14.4558 17.4784 14.3118 17.6041 14.2445L18.9239 13.5374C19.162 13.4098 19.4355 13.4672 19.6882 13.5628C19.9534 13.6631 20.2532 13.806 20.349 14.0729L20.4134 14.2524C20.5341 14.5888 20.39 14.9594 20.2834 15.3005C20.2536 15.3961 20.2378 15.497 20.2378 15.6007C20.2378 15.6127 20.238 15.6246 20.2385 15.6365C20.2485 15.8959 20.2078 16.1808 20.0035 16.3409C19.8132 16.4902 19.5489 16.4775 19.314 16.4199C19.2406 16.402 19.1649 16.3924 19.0879 16.3924C18.8115 16.3924 18.511 16.3692 18.3156 16.1738L17.6603 15.5184C17.4297 15.2879 17.4208 14.9244 17.4208 14.5983ZM19.4096 17.6932C19.2332 17.8851 18.9125 17.8731 18.7538 17.68C18.604 17.4967 18.6279 17.2383 18.7968 17.0828C18.9844 16.9124 19.2797 16.9366 19.4359 17.1481C19.5574 17.3079 19.55 17.5356 19.4096 17.6932ZM20.8156 15.6007C20.8156 15.3615 21.0102 15.1673 21.249 15.1673C21.4863 15.1673 21.6823 15.3609 21.6823 15.6007C21.6823 15.8397 21.4879 16.0341 21.249 16.0341C21.0011 16.0341 20.8156 15.8347 20.8156 15.6007ZM23.0083 12.1494C23.6284 12.6642 23.5072 13.5964 22.8729 14.0937L22.4897 14.3941C22.157 14.655 21.6718 14.5895 21.249 14.5895C21.1915 14.5895 21.1382 14.5615 21.1188 14.5074L20.919 13.9502C20.796 13.6073 20.936 13.2286 21.0301 12.8766C21.0523 12.7936 21.064 12.7071 21.064 12.6191C21.064 12.1681 20.7667 11.7868 20.358 11.6575C20.1967 11.6065 20.0448 11.5062 19.9877 11.3471C19.8834 11.0565 20.1246 10.7623 20.4242 10.8366C21.3836 11.0746 22.2638 11.5314 23.0083 12.1494ZM20.0528 12.1857C20.2918 12.1857 20.4862 12.3801 20.4862 12.6191C20.4862 12.7845 20.3904 12.9375 20.2416 13.0092C19.9671 13.1425 19.6194 12.9425 19.6194 12.6191C19.6194 12.3737 19.8209 12.1857 20.0528 12.1857ZM18.589 10.6535C18.9118 10.6392 19.1956 10.8509 19.3047 11.155C19.4312 11.5073 19.2536 11.8948 19.1141 12.2421C19.0671 12.3589 19.0416 12.4863 19.0416 12.6191C19.0416 12.7318 18.9966 12.843 18.8973 12.8962L17.7682 13.5011C17.3681 13.7155 16.8635 13.587 16.4096 13.587C16.0837 13.587 15.7206 13.5789 15.4902 13.3484L15.2855 13.1437C14.8533 12.7115 14.8662 11.9975 15.3811 11.6682C16.3153 11.071 17.4115 10.7057 18.589 10.6535ZM13.3592 13.7093C13.7056 13.1564 14.4684 13.1437 14.9298 13.605L15.1842 13.8595C15.3716 14.0469 15.3984 14.3332 15.3984 14.5982C15.3984 14.787 15.3698 14.9835 15.2416 15.122L14.6413 15.771C14.4841 15.9408 14.237 15.9792 14.0057 15.9792C13.5723 15.9792 13.2046 16.2543 13.062 16.6386C13.0162 16.762 12.9268 16.871 12.7999 16.9061C12.5864 16.9651 12.3763 16.8017 12.3957 16.581C12.4878 15.5333 12.8287 14.5563 13.3592 13.7093ZM14.439 16.9904C14.439 17.2409 14.2342 17.4238 14.0057 17.4238C13.7927 17.4238 13.5863 17.2722 13.5723 16.9904C13.5723 16.7515 13.7667 16.557 14.0057 16.557C14.2446 16.557 14.439 16.7515 14.439 16.9904ZM13.6467 21.0329C12.9752 20.1283 12.5597 19.0856 12.4216 17.9801C12.3955 17.7711 12.5325 17.5795 12.7355 17.5234C12.9425 17.4662 13.1546 17.5754 13.3102 17.7235C13.4917 17.8965 13.7368 18.0017 14.0057 18.0017C14.2367 18.0017 14.4831 18.0377 14.6412 18.2062L15.3416 18.9532C15.4634 19.0831 15.4965 19.2681 15.4965 19.4463C15.4965 19.67 15.448 19.9084 15.2718 20.0464L13.9525 21.0796C13.8556 21.1554 13.72 21.1317 13.6467 21.0329ZM18.881 32.8695C18.7165 32.8695 18.5593 32.8385 18.4148 32.782C17.8176 32.5483 18.2397 31.8695 18.881 31.8695C19.5223 31.8695 19.9445 32.5482 19.3473 32.7819C19.2028 32.8385 19.0456 32.8695 18.881 32.8695ZM21.0087 31.2916H16.7532C16.5196 31.2916 16.3296 31.1016 16.3296 30.868C16.3296 30.6344 16.5196 30.4443 16.7532 30.4443H21.0087C21.2423 30.4443 21.4324 30.6344 21.4324 30.868C21.4324 31.1016 21.2423 31.2916 21.0087 31.2916ZM21.0087 29.8665H16.7532C16.5196 29.8665 16.3296 29.6765 16.3296 29.4429C16.3296 29.2092 16.5196 29.0191 16.7532 29.0191H21.0087C21.2423 29.0191 21.4324 29.2092 21.4324 29.4429C21.4324 29.6765 21.2423 29.8665 21.0087 29.8665ZM21.0087 28.4412H16.7532C16.5196 28.4412 16.3296 28.2512 16.3296 28.0176C16.3296 27.784 16.5196 27.5939 16.7532 27.5939H21.0087C21.2423 27.5939 21.4324 27.784 21.4324 28.0176C21.4324 28.2512 21.2423 28.4412 21.0087 28.4412ZM22.0901 25.6065C21.9744 26.3492 21.3686 27.0161 20.6169 27.0161C19.9556 27.0161 19.3284 27.0161 18.713 27.0161C17.0871 27.0161 15.7967 25.6919 15.2837 24.1491C15.132 23.693 14.9472 23.2436 14.73 22.8032C14.4108 22.1558 14.5375 21.3553 15.1058 20.9103L15.4374 20.6506C15.7276 20.4233 16.1391 20.4574 16.5078 20.4574C16.7562 20.4574 17.0212 20.4741 17.2121 20.633L18.7405 21.9039C18.9101 22.045 18.9548 22.2796 18.9548 22.5002C18.9548 23.0577 19.4085 23.5114 19.966 23.5114C20.2971 23.5114 20.6627 23.5015 20.9172 23.7132L21.5827 24.2667C21.9895 24.605 22.1715 25.0837 22.0901 25.6065ZM22.9257 22.9976C22.6426 23.5625 21.8958 23.7753 21.41 23.3713L21.2179 23.2115C21.0174 23.0447 20.9773 22.7611 20.9773 22.5002C20.9773 22.399 20.9621 22.3006 20.9339 22.2074C20.8183 21.8271 20.632 21.418 20.7536 21.0395L20.8946 20.6004C20.9509 20.4251 21.0851 20.33 21.2682 20.3103C21.42 20.294 21.6233 20.3014 21.7313 20.4094L22.8486 21.5267C23.1874 21.8655 23.2439 22.3893 23.0206 22.8131C22.9886 22.8738 22.957 22.9353 22.9257 22.9976ZM23.8894 21.3763C23.8136 21.493 23.6494 21.5104 23.551 21.412L22.4079 20.269C22.1671 20.0282 22.1648 19.6453 22.1648 19.3047C22.1648 19.1139 22.2274 18.9136 22.3901 18.8138L23.1471 18.3496C24.1455 17.7373 25.3902 18.4651 24.9333 19.5435C24.6589 20.1912 24.2871 20.7646 23.8894 21.3763Z" fill="#B0A9D3"/>
<path d="M19.1699 8.25501V6.28892C19.1699 6.12935 19.0406 6 18.881 6C18.7215 6 18.5921 6.12935 18.5921 6.28892V8.25501C18.5921 8.41458 18.7215 8.54393 18.881 8.54393C19.0406 8.54393 19.1699 8.41458 19.1699 8.25501Z" fill="#B0A9D3"/>
<path d="M14.8186 9.26601L13.8356 7.56332C13.7558 7.42513 13.5791 7.37779 13.4409 7.45757C13.3027 7.53735 13.2554 7.71405 13.3351 7.85224L14.3182 9.55493C14.398 9.69312 14.5747 9.74046 14.7129 9.66068C14.851 9.5809 14.8984 9.4042 14.8186 9.26601Z" fill="#B0A9D3"/>
<path d="M9.56389 11.8353L11.2666 12.8183C11.4048 12.8981 11.5815 12.8507 11.6612 12.7126C11.741 12.5744 11.6937 12.3977 11.5555 12.3179L9.85281 11.3348C9.71462 11.2551 9.53792 11.3024 9.45813 11.4406C9.37835 11.5788 9.4257 11.7555 9.56389 11.8353Z" fill="#B0A9D3"/>
<path d="M10.255 16.5922H8.28892C8.12935 16.5922 8 16.7215 8 16.8811C8 17.0406 8.12935 17.17 8.28892 17.17H10.255C10.4146 17.17 10.5439 17.0406 10.5439 16.8811C10.5439 16.7215 10.4146 16.5922 10.255 16.5922Z" fill="#B0A9D3"/>
<path d="M11.2664 20.9429L9.56369 21.926C9.4255 22.0058 9.37815 22.1825 9.45794 22.3206C9.53772 22.4588 9.71442 22.5062 9.85261 22.4264L11.5553 21.4434C11.6935 21.3636 11.7408 21.1869 11.661 21.0487C11.5813 20.9105 11.4046 20.8631 11.2664 20.9429Z" fill="#B0A9D3"/>
<path d="M28.1972 21.9265L26.4945 20.9434C26.3563 20.8636 26.1796 20.911 26.0998 21.0492C26.02 21.1873 26.0674 21.364 26.2056 21.4438L27.9082 22.4269C28.0464 22.5067 28.2231 22.4593 28.3029 22.3211C28.3827 22.1829 28.3353 22.0062 28.1972 21.9265Z" fill="#B0A9D3"/>
<path d="M29.4731 16.5922H27.507C27.3474 16.5922 27.2181 16.7215 27.2181 16.8811C27.2181 17.0406 27.3474 17.17 27.507 17.17H29.4731C29.6327 17.17 29.762 17.0406 29.762 16.8811C29.762 16.7215 29.6327 16.5922 29.4731 16.5922Z" fill="#B0A9D3"/>
<path d="M26.4967 12.8185L28.1994 11.8355C28.3376 11.7557 28.3849 11.579 28.3051 11.4408C28.2253 11.3026 28.0486 11.2553 27.9105 11.3351L26.2078 12.3181C26.0696 12.3979 26.0222 12.5746 26.102 12.7128C26.1818 12.851 26.3585 12.8983 26.4967 12.8185Z" fill="#B0A9D3"/>
<path d="M23.9269 7.56419L22.9439 9.26688C22.8641 9.40507 22.9115 9.58177 23.0496 9.66155C23.1878 9.74133 23.3645 9.69399 23.4443 9.5558L24.4274 7.85311C24.5071 7.71492 24.4598 7.53822 24.3216 7.45844C24.1834 7.37866 24.0067 7.426 23.9269 7.56419Z" fill="#B0A9D3"/>
</svg>
