<svg width="40" height="40" viewBox="0 0 40 40" fill="none" xmlns="http://www.w3.org/2000/svg">
<rect width="40" height="40" rx="18.5" fill="#5A4CAC"/>
<path d="M26.7646 17.6754C27.4469 17.2165 27.9361 16.532 28.1518 15.7241C28.3876 14.8411 28.268 13.9212 27.8151 13.134C27.3622 12.3467 26.6282 11.7829 25.7484 11.5462C24.9434 11.3298 24.108 11.4127 23.3709 11.7762L21.4717 8.47488C21.0674 7.77208 20.3412 7.36245 19.535 7.37625C18.7266 7.39111 18.0181 7.82806 17.6395 8.5451C17.3737 9.04888 17.1241 9.57218 16.8598 10.1263C15.7826 12.3844 14.5617 14.9439 11.9223 16.4733L8.53068 18.4384C7.36323 19.1148 6.527 20.2114 6.17593 21.5262C5.82493 22.8409 6.00279 24.2102 6.6768 25.3818C7.61383 27.0106 9.31979 27.9223 11.0716 27.9223C11.7105 27.9223 12.3555 27.8007 12.9716 27.5488L15.3425 31.6702C15.8331 32.5229 16.7259 33 17.643 33C18.0924 33 18.5477 32.8853 18.9641 32.6441C19.5755 32.2898 20.0133 31.7159 20.197 31.0279C20.3806 30.34 20.2874 29.6232 19.9344 29.0096L17.6014 24.9542C20.0577 23.7823 22.6359 23.9811 24.9314 24.1592C25.5422 24.2066 26.1191 24.2513 26.6872 24.2722C27.4941 24.3012 28.2266 23.9045 28.6435 23.2092C29.0605 22.514 29.0681 21.6794 28.6638 20.9766L26.7646 17.6752L26.7646 17.6754ZM25.3896 12.8898C25.9119 13.0303 26.347 13.3639 26.6147 13.8295C27.1318 14.7282 26.8812 15.8632 26.0692 16.4665L24.0665 12.9852C24.481 12.8045 24.9428 12.7696 25.3896 12.8898H25.3896ZM11.0693 26.5316C9.79704 26.5315 8.55779 25.8694 7.87724 24.6863C7.38835 23.8365 7.25961 22.8421 7.51487 21.8862C7.77007 20.9303 8.377 20.1337 9.22377 19.6431L12.0155 18.0256L15.6976 24.4182L12.9025 26.0377C12.3246 26.3726 11.6931 26.5317 11.0693 26.5316ZM18.8583 30.668C18.7704 30.997 18.5619 31.271 18.2711 31.4395C17.667 31.7895 16.8918 31.5811 16.5429 30.9748L14.1957 26.8946L16.3869 25.625L18.7341 29.7052C18.902 29.997 18.9461 30.3389 18.8582 30.668H18.8583ZM27.456 22.492C27.2984 22.7548 27.0443 22.894 26.7379 22.8822C26.1979 22.8624 25.6347 22.8186 25.0383 22.7724C22.5333 22.5782 19.7167 22.3603 16.9099 23.7434L13.2039 17.3093C15.8039 15.5595 17.0248 13.0019 18.11 10.727C18.368 10.186 18.6118 9.67495 18.8644 9.19621C19.0075 8.92507 19.2547 8.77267 19.5603 8.76711C19.5661 8.767 19.5719 8.76694 19.5776 8.76694C19.8755 8.76694 20.1214 8.90977 20.2714 9.17045L27.4636 21.6724C27.6164 21.9381 27.6138 22.2292 27.4561 22.492L27.456 22.492ZM25.6558 8.83572L27.087 6.34789C27.2783 6.01522 27.7021 5.90121 28.0336 6.09334C28.3651 6.28541 28.4787 6.71078 28.2873 7.04341L26.8561 9.53123C26.7277 9.75435 26.4948 9.8791 26.2553 9.8791C26.1377 9.8791 26.0185 9.84905 25.9094 9.78579C25.5779 9.59371 25.4644 9.16834 25.6558 8.83572ZM32.09 11.4601L29.5511 12.9312C29.442 12.9944 29.3228 13.0245 29.2052 13.0245C28.9657 13.0245 28.7328 12.8998 28.6044 12.6767C28.413 12.344 28.5266 11.9186 28.8581 11.7266L31.397 10.2555C31.7284 10.0633 32.1523 10.1774 32.3437 10.51C32.535 10.8426 32.4214 11.2681 32.09 11.4601ZM34 16.4643C34 16.8484 33.6897 17.1598 33.307 17.1598H30.4445C30.0618 17.1598 29.7515 16.8485 29.7515 16.4643C29.7515 16.0802 30.0618 15.7688 30.4445 15.7688H33.307C33.6897 15.7688 34 16.0802 34 16.4643Z" fill="#B0A9D3"/>
</svg>
