<svg width="71" height="63" viewBox="0 0 71 63" fill="none" xmlns="http://www.w3.org/2000/svg">
<path d="M27.1181 12.882C31.0622 6.82043 39.9378 6.82044 43.8819 12.882L56.1887 31.7962C60.5171 38.4485 55.7433 47.25 47.8068 47.25H23.1932C15.2567 47.25 10.4829 38.4485 14.8113 31.7962L27.1181 12.882Z" fill="#5A4CAC"/>
<path d="M43.7333 26.6767C44.0069 26.6767 44.2596 26.7934 44.4452 27.0041C44.4876 27.0523 44.5438 27.0865 44.6062 27.1021C44.6687 27.1177 44.7344 27.114 44.7947 27.0914C44.8549 27.0689 44.9069 27.0286 44.9436 26.9759C44.9802 26.9232 44.9999 26.8607 45 26.7966V23.523C45 23.4393 44.9666 23.3591 44.9073 23.3C44.8479 23.2408 44.7673 23.2076 44.6833 23.2076H42.0151C42.1031 23.0102 42.15 22.7957 42.15 22.5769C42.15 21.7077 41.4394 21 40.5667 21C39.6939 21 38.9833 21.7077 38.9833 22.5769C38.9833 22.7957 39.0302 23.0102 39.1182 23.2076H37.0833V21.3154C37.0833 21.2317 37.05 21.1515 36.9906 21.0924C36.9312 21.0332 36.8507 21 36.7667 21H33.4797C33.4153 21.0001 33.3525 21.0197 33.2996 21.0562C33.2467 21.0928 33.2062 21.1445 33.1836 21.2045C33.161 21.2645 33.1572 21.33 33.1729 21.3921C33.1886 21.4543 33.2229 21.5103 33.2713 21.5525C33.4828 21.7373 33.6 21.989 33.6 22.2615C33.6 22.7831 33.1738 23.2076 32.65 23.2076C32.1262 23.2076 31.7 22.7831 31.7 22.2615C31.7 21.989 31.8172 21.7373 32.0287 21.5525C32.0771 21.5103 32.1114 21.4543 32.1271 21.3921C32.1428 21.33 32.139 21.2645 32.1164 21.2045C32.0938 21.1445 32.0533 21.0928 32.0004 21.0562C31.9475 21.0197 31.8847 21.0001 31.8203 21H28.5333C28.4493 21 28.3688 21.0332 28.3094 21.0924C28.25 21.1515 28.2167 21.2317 28.2167 21.3154V23.9727C28.0173 23.8843 27.8016 23.8385 27.5833 23.8384C26.7106 23.8384 26 24.5461 26 25.4152C26 26.2844 26.7106 26.9921 27.5833 26.9921C27.8031 26.9921 28.0184 26.9454 28.2167 26.8577V28.8843H26.3167C26.2327 28.8843 26.1521 28.9176 26.0927 28.9767C26.0334 29.0359 26 29.1161 26 29.1997V32.4727C26.0001 32.5368 26.0198 32.5993 26.0564 32.652C26.0931 32.7047 26.1451 32.745 26.2053 32.7675C26.2656 32.7901 26.3313 32.7938 26.3938 32.7782C26.4562 32.7626 26.5124 32.7284 26.5548 32.6802C26.6428 32.5779 26.752 32.4957 26.8749 32.4393C26.9977 32.3829 27.1314 32.3536 27.2667 32.3535C27.7904 32.3535 28.2167 32.7779 28.2167 33.2996C28.2167 33.8212 27.7904 34.2457 27.2667 34.2457C26.9931 34.2457 26.7404 34.129 26.5548 33.9183C26.5122 33.8703 26.456 33.8363 26.3936 33.8206C26.3312 33.805 26.2656 33.8085 26.2052 33.8307C26.1449 33.8534 26.093 33.8939 26.0564 33.9467C26.0197 33.9996 26 34.0623 26 34.1265V37.3994C26 37.4831 26.0334 37.5633 26.0927 37.6224C26.1521 37.6816 26.2327 37.7148 26.3167 37.7148H28.9849C28.8961 37.9133 28.8501 38.1282 28.85 38.3456C28.85 39.2154 29.5606 39.9224 30.4333 39.9224C31.3061 39.9224 32.0167 39.2154 32.0167 38.3456C32.0167 38.1261 31.9698 37.9116 31.8818 37.7148H33.9167V39.607C33.9167 39.6907 33.95 39.7709 34.0094 39.83C34.0688 39.8892 34.1493 39.9224 34.2333 39.9224H37.5203C37.5848 39.9224 37.6477 39.9027 37.7007 39.8661C37.7536 39.8295 37.7941 39.7777 37.8167 39.7175C37.8392 39.6574 37.8429 39.5918 37.827 39.5296C37.8112 39.4674 37.7767 39.4114 37.7281 39.3693C37.6258 39.2813 37.5436 39.1726 37.487 39.0505C37.4305 38.9283 37.4008 38.7955 37.4 38.6609C37.4 38.1393 37.8262 37.7148 38.35 37.7148C38.8738 37.7148 39.3 38.1393 39.3 38.6609C39.3 38.9296 39.1803 39.1882 38.9713 39.3693C38.9202 39.3693 38.8698 39.3817 38.8245 39.4054C38.7792 39.429 38.7404 39.4633 38.7113 39.5052C38.6822 39.547 38.6637 39.5953 38.6574 39.6459C38.6511 39.6964 38.6572 39.7477 38.6752 39.7954C38.6931 39.8431 38.7224 39.8857 38.7605 39.9197C38.7987 39.9536 38.8445 39.9779 38.894 39.9904C38.9436 40.0029 38.9955 40.0032 39.0452 39.9914C39.095 39.9795 39.1411 39.9559 39.1797 39.9224H42.4667C42.5507 39.9224 42.6312 39.8892 42.6906 39.83C42.75 39.7709 42.7833 39.6907 42.7833 39.607V36.9497C42.9816 37.0374 43.1969 37.0841 43.4167 37.0841C44.2894 37.0841 45 36.377 45 35.5072C45 34.6374 44.2894 33.9303 43.4167 33.9303C43.1969 33.9303 42.9816 33.977 42.7833 34.0647V32.0381H44.6833C44.7673 32.0381 44.8479 32.0049 44.9073 31.9457C44.9666 31.8866 45 31.8063 45 31.7227V28.4491C44.9999 28.385 44.9802 28.3225 44.9436 28.2698C44.9069 28.2171 44.8549 28.1768 44.7947 28.1543C44.7344 28.1317 44.6687 28.128 44.6062 28.1436C44.5438 28.1592 44.4876 28.1934 44.4452 28.2416C44.3573 28.3441 44.2481 28.4264 44.1253 28.4829C44.0024 28.5394 43.8687 28.5688 43.7333 28.569C43.2096 28.569 42.7833 28.1445 42.7833 27.6228C42.7833 27.1012 43.2096 26.6767 43.7333 26.6767ZM36.1333 31.092H34.8667V29.8305H36.1333V31.092ZM28.6448 25.9463C28.5845 25.9238 28.5187 25.9201 28.4562 25.9358C28.3938 25.9514 28.3376 25.9857 28.2952 26.034C28.2073 26.1365 28.0981 26.2188 27.9753 26.2753C27.8524 26.3318 27.7187 26.3612 27.5833 26.3614C27.0596 26.3614 26.6333 25.9369 26.6333 25.4152C26.6333 24.8936 27.0596 24.4691 27.5833 24.4691C27.8569 24.4691 28.1096 24.5858 28.2952 24.7965C28.3376 24.8447 28.3938 24.8789 28.4562 24.8945C28.5187 24.9101 28.5844 24.9064 28.6447 24.8838C28.7049 24.8613 28.7569 24.821 28.7936 24.7683C28.8302 24.7156 28.8499 24.6531 28.85 24.589V21.6307H31.2016C31.1128 21.8293 31.0668 22.0442 31.0667 22.2615C31.0667 23.1307 31.7773 23.8384 32.65 23.8384C33.5227 23.8384 34.2333 23.1307 34.2333 22.2615C34.2333 22.0426 34.1865 21.8282 34.0984 21.6307H36.45V29.1997H34.8667C34.8667 29.1161 34.8333 29.0359 34.7739 28.9767C34.7145 28.9176 34.634 28.8843 34.55 28.8843H28.85V26.2415C28.85 26.1774 28.8304 26.1147 28.7937 26.062C28.757 26.0093 28.7051 25.9689 28.6448 25.9463ZM31.263 37.0841C31.1985 37.0841 31.1356 37.1038 31.0827 37.1404C31.0297 37.177 30.9893 37.2288 30.9667 37.289C30.9441 37.3491 30.9405 37.4146 30.9563 37.4769C30.9721 37.5391 31.0067 37.595 31.0553 37.6372C31.2636 37.8182 31.3833 38.0769 31.3833 38.3456C31.3833 38.8672 30.9571 39.2917 30.4333 39.2917C29.9096 39.2917 29.4833 38.8672 29.4833 38.3456C29.4833 38.0769 29.603 37.8182 29.812 37.6372C29.8632 37.6372 29.9135 37.6248 29.9588 37.6011C30.0041 37.5774 30.043 37.5432 30.0721 37.5013C30.1012 37.4594 30.1197 37.4112 30.1259 37.3606C30.1322 37.3101 30.1261 37.2588 30.1082 37.2111C30.0902 37.1634 30.0609 37.1207 30.0228 37.0868C29.9847 37.0528 29.9389 37.0286 29.8893 37.0161C29.8397 37.0036 29.7878 37.0033 29.7381 37.0151C29.6883 37.0269 29.6422 37.0506 29.6037 37.0841H26.6333V34.7421C26.8316 34.8298 27.0469 34.8764 27.2667 34.8764C28.1394 34.8764 28.85 34.1694 28.85 33.2996C28.85 32.4298 28.1394 31.7227 27.2667 31.7227C27.0469 31.7227 26.8316 31.7694 26.6333 31.8571V29.5151H34.2333V37.0841H31.263ZM42.3552 34.9755C42.4155 34.998 42.4813 35.0017 42.5438 34.986C42.6062 34.9703 42.6624 34.9361 42.7048 34.8878C42.7927 34.7853 42.9018 34.7029 43.0247 34.6464C43.1476 34.5899 43.2813 34.5606 43.4167 34.5604C43.9404 34.5604 44.3667 34.9849 44.3667 35.5066C44.3667 36.0282 43.9404 36.4527 43.4167 36.4527C43.1431 36.4527 42.8904 36.336 42.7048 36.1253C42.6621 36.0778 42.6059 36.0442 42.5437 36.029C42.4815 36.0138 42.4161 36.0177 42.3561 36.0401C42.2962 36.0625 42.2444 36.1025 42.2076 36.1547C42.1708 36.2069 42.1507 36.269 42.15 36.3328V39.2917H39.7984C39.8865 39.0949 39.9333 38.8804 39.9333 38.6609C39.9333 37.7911 39.2227 37.0841 38.35 37.0841C37.4773 37.0841 36.7667 37.7911 36.7667 38.6609C36.7667 38.8804 36.8135 39.0949 36.9016 39.2917H34.55V37.7148C34.634 37.7148 34.7145 37.6816 34.7739 37.6224C34.8333 37.5633 34.8667 37.4831 34.8667 37.3994V31.7227H36.1333C36.1333 31.8063 36.1667 31.8866 36.2261 31.9457C36.2855 32.0049 36.366 32.0381 36.45 32.0381H42.15V34.6803C42.15 34.7444 42.1696 34.807 42.2063 34.8598C42.243 34.9125 42.2949 34.9529 42.3552 34.9755ZM43.7333 29.1997C43.9531 29.1997 44.1684 29.153 44.3667 29.0654V31.4073H36.7667V29.8305C36.8507 29.8305 36.9312 29.7972 36.9906 29.7381C37.05 29.6789 37.0833 29.5987 37.0833 29.5151V23.8384H39.737C39.8014 23.8383 39.8642 23.8187 39.9171 23.7821C39.97 23.7456 40.0104 23.6939 40.0331 23.6339C40.0557 23.5739 40.0594 23.5084 40.0438 23.4462C40.0281 23.384 39.9938 23.3281 39.9454 23.2858C39.8425 23.1983 39.7598 23.0896 39.7031 22.9672C39.6463 22.8448 39.6169 22.7117 39.6167 22.5769C39.6167 22.0552 40.0429 21.6307 40.5667 21.6307C41.0904 21.6307 41.5167 22.0552 41.5167 22.5769C41.5167 22.8494 41.3995 23.101 41.188 23.2858C41.1396 23.3281 41.1052 23.384 41.0896 23.4462C41.0739 23.5084 41.0776 23.5739 41.1003 23.6339C41.1229 23.6939 41.1633 23.7456 41.2162 23.7821C41.2691 23.8187 41.332 23.8383 41.3963 23.8384H44.3667V26.1803C44.1673 26.0919 43.9516 26.0461 43.7333 26.046C42.8606 26.046 42.15 26.7537 42.15 27.6228C42.15 28.492 42.8606 29.1997 43.7333 29.1997Z" fill="#B0A9D3"/>
</svg>
