<svg width="43" height="43" viewBox="0 0 43 43" fill="none" xmlns="http://www.w3.org/2000/svg">
<path d="M21.5 43C33.3741 43 43 33.3741 43 21.5C43 9.62588 33.3741 0 21.5 0C9.62588 0 0 9.62588 0 21.5C0 33.3741 9.62588 43 21.5 43Z" fill="#5A4CAC"/>
<path d="M21.5 33.9297C19.0416 33.9297 16.6385 33.2007 14.5944 31.8349C12.5504 30.4691 10.9572 28.5279 10.0165 26.2566C9.0757 23.9854 8.82955 21.4862 9.30915 19.0751C9.78875 16.664 10.9726 14.4492 12.7109 12.7109C14.4492 10.9726 16.664 9.78875 19.0751 9.30915C21.4862 8.82955 23.9854 9.0757 26.2566 10.0165C28.5279 10.9572 30.4691 12.5504 31.8349 14.5944C33.2007 16.6385 33.9297 19.0416 33.9297 21.5C33.9226 24.7944 32.6108 27.9518 30.2813 30.2813C27.9518 32.6108 24.7944 33.9226 21.5 33.9297ZM31.9947 23.1965C29.8433 22.5848 27.5868 22.4349 25.3734 22.7564C26.2635 25.219 26.9456 27.7519 27.4125 30.3284C28.6156 29.5077 29.6412 28.4534 30.4284 27.2281C31.2156 26.0029 31.7483 24.6318 31.9947 23.1965ZM25.6421 31.2791C25.1386 28.5197 24.3772 25.8136 23.3678 23.1965H23.3006C17.3579 25.3028 15.1844 29.4483 14.9795 29.8212C16.8444 31.2744 19.1358 32.0736 21.5 32.0955C22.9221 32.1104 24.332 31.8325 25.6421 31.2791ZM13.6223 28.632C13.8272 28.2591 16.7801 23.4014 22.2491 21.6344C22.3867 21.5691 22.5369 21.5347 22.6892 21.5336C22.4171 20.9222 22.145 20.3108 21.8057 19.6994C18.2546 20.735 14.5697 21.2388 10.8709 21.1943V21.5302C10.8808 24.1548 11.8608 26.683 13.6223 28.6286V28.632ZM11.1095 19.3601C14.4194 19.3267 17.7139 18.9051 20.9256 18.1037C19.7374 15.9949 18.4331 13.9537 17.0186 11.9896C15.5168 12.6572 14.1966 13.6746 13.1685 14.9569C12.1405 16.2392 11.4344 17.749 11.1095 19.3601ZM19.0208 11.2438C20.4612 13.2275 21.7881 15.2912 22.9949 17.4251C26.7306 15.9973 28.3699 13.8944 28.5648 13.6223C26.636 11.9109 24.1458 10.9676 21.5672 10.9717C20.7088 10.9014 19.8449 10.9937 19.0208 11.2438ZM29.717 14.8081C29.4785 15.0802 27.7484 17.3881 23.8079 19.0208C24.0464 19.5314 24.3185 20.0051 24.5201 20.5493C24.5873 20.7206 24.6914 20.9222 24.7586 21.0935C27.2253 20.8417 29.7156 20.9549 32.1492 21.4295C32.0985 19.0131 31.2426 16.6828 29.717 14.8081Z" fill="#B0A9D3"/>
</svg>
